<mxfile host="Electron" modified="2024-05-10T00:29:12.440Z" agent="Mozilla/5.0 (Windows NT 10.0; Win64; x64) AppleWebKit/537.36 (KHTML, like Gecko) draw.io/22.1.16 Chrome/120.0.6099.109 Electron/28.1.0 Safari/537.36" etag="d7xWfGwuthKkC4BCUCAi" version="22.1.16" type="device" pages="4">
  <diagram name="workflow" id="AIdnhaZjEhXh5SEcMg9o">
    <mxGraphModel dx="1548" dy="894" grid="0" gridSize="10" guides="1" tooltips="1" connect="1" arrows="1" fold="1" page="1" pageScale="1" pageWidth="1169" pageHeight="827" math="0" shadow="0">
      <root>
        <mxCell id="_rIR7Xz8R4I5HbbiQDbp-0" />
        <mxCell id="_rIR7Xz8R4I5HbbiQDbp-1" parent="_rIR7Xz8R4I5HbbiQDbp-0" />
        <mxCell id="_rIR7Xz8R4I5HbbiQDbp-2" value="&lt;b&gt;&lt;font style=&quot;font-size: 14px;&quot;&gt;Payer&lt;br&gt;&lt;br&gt;&lt;br&gt;&lt;br&gt;&lt;br&gt;&lt;br&gt;&lt;br&gt;&lt;br&gt;&lt;br&gt;&lt;br&gt;&lt;br&gt;&lt;br&gt;&lt;br&gt;&lt;br&gt;&lt;br&gt;&lt;br&gt;&lt;br&gt;&lt;br&gt;&lt;br&gt;&lt;br&gt;&lt;br&gt;&lt;br&gt;&lt;br&gt;&lt;br&gt;&lt;br&gt;&lt;br&gt;&lt;/font&gt;&lt;/b&gt;" style="rounded=0;whiteSpace=wrap;html=1;" parent="_rIR7Xz8R4I5HbbiQDbp-1" vertex="1">
          <mxGeometry x="60" y="30" width="280" height="450" as="geometry" />
        </mxCell>
        <mxCell id="_rIR7Xz8R4I5HbbiQDbp-12" value="Does Measure.identifier need to be required?" style="rounded=0;whiteSpace=wrap;html=1;" parent="_rIR7Xz8R4I5HbbiQDbp-1" vertex="1">
          <mxGeometry x="650" y="740" width="150" height="60" as="geometry" />
        </mxCell>
        <mxCell id="ThUR2b_u5rRLdyyr30WP-0" value="&lt;font style=&quot;&quot;&gt;&lt;b style=&quot;font-size: 14px;&quot;&gt;Provider&lt;br&gt;&lt;/b&gt;&lt;br&gt;&lt;br&gt;&lt;/font&gt;&lt;br&gt;&lt;br&gt;&lt;br&gt;&lt;br&gt;&lt;br&gt;&lt;br&gt;&lt;br&gt;&lt;br&gt;&lt;br&gt;&lt;br&gt;&lt;br&gt;&lt;br&gt;&lt;br&gt;&lt;br&gt;&lt;br&gt;&lt;br&gt;&lt;br&gt;&lt;br&gt;&lt;br&gt;&lt;br&gt;&lt;br&gt;&lt;br&gt;&lt;br&gt;&lt;br&gt;&lt;br&gt;&lt;br&gt;" style="rounded=0;whiteSpace=wrap;html=1;" parent="_rIR7Xz8R4I5HbbiQDbp-1" vertex="1">
          <mxGeometry x="600" y="30" width="290" height="450" as="geometry" />
        </mxCell>
        <mxCell id="ThUR2b_u5rRLdyyr30WP-1" value="Provider GET the VBP MeasureReport&amp;nbsp; from the Payer server&amp;nbsp;&lt;br&gt;&lt;br&gt;&lt;div style=&quot;text-align: left;&quot;&gt;&lt;span style=&quot;background-color: initial;&quot;&gt;&amp;nbsp;searchParameters:&lt;/span&gt;&lt;/div&gt;&lt;div style=&quot;text-align: left;&quot;&gt;&lt;ul&gt;&lt;li&gt;&lt;span style=&quot;background-color: initial;&quot;&gt;measurereport-category&lt;/span&gt;&lt;/li&gt;&lt;li&gt;&lt;span style=&quot;background-color: initial;&quot;&gt;measure&lt;/span&gt;&lt;/li&gt;&lt;li&gt;&lt;span style=&quot;background-color: initial;&quot;&gt;period&amp;nbsp;&lt;/span&gt;&lt;/li&gt;&lt;li&gt;evaluatedResource&lt;/li&gt;&lt;/ul&gt;&lt;/div&gt;" style="rounded=1;whiteSpace=wrap;html=1;fillColor=#d5e8d4;strokeColor=#82b366;" parent="_rIR7Xz8R4I5HbbiQDbp-1" vertex="1">
          <mxGeometry x="630" y="305" width="230" height="140" as="geometry" />
        </mxCell>
        <mxCell id="ThUR2b_u5rRLdyyr30WP-2" value="Provider GET the VBP Measure&amp;nbsp;&lt;br&gt;&lt;br&gt;&lt;div style=&quot;text-align: left;&quot;&gt;&lt;span style=&quot;background-color: initial;&quot;&gt;&amp;nbsp;searchParameters:&lt;/span&gt;&lt;/div&gt;&lt;ul&gt;&lt;li style=&quot;text-align: left;&quot;&gt;name (contract name)&lt;/li&gt;&lt;li style=&quot;text-align: left;&quot;&gt;url (canonical identifier)&lt;/li&gt;&lt;li style=&quot;text-align: left;&quot;&gt;identifier (business identifier for the contract)&lt;/li&gt;&lt;li style=&quot;text-align: left;&quot;&gt;effective (effectivePeriod for the contract/contract term)&lt;/li&gt;&lt;/ul&gt;" style="rounded=1;whiteSpace=wrap;html=1;fillColor=#d5e8d4;strokeColor=#82b366;" parent="_rIR7Xz8R4I5HbbiQDbp-1" vertex="1">
          <mxGeometry x="630" y="105" width="230" height="160" as="geometry" />
        </mxCell>
        <mxCell id="ThUR2b_u5rRLdyyr30WP-3" value="" style="endArrow=classic;html=1;rounded=0;exitX=0.5;exitY=1;exitDx=0;exitDy=0;" parent="_rIR7Xz8R4I5HbbiQDbp-1" source="ThUR2b_u5rRLdyyr30WP-2" target="ThUR2b_u5rRLdyyr30WP-1" edge="1">
          <mxGeometry width="50" height="50" relative="1" as="geometry">
            <mxPoint x="540" y="345" as="sourcePoint" />
            <mxPoint x="590" y="295" as="targetPoint" />
          </mxGeometry>
        </mxCell>
        <mxCell id="ThUR2b_u5rRLdyyr30WP-9" value="Payer creates VBP Measure&lt;br&gt;(Measure.url assigned)" style="rounded=1;whiteSpace=wrap;html=1;fillColor=#dae8fc;strokeColor=#6c8ebf;" parent="_rIR7Xz8R4I5HbbiQDbp-1" vertex="1">
          <mxGeometry x="90" y="120" width="220" height="60" as="geometry" />
        </mxCell>
        <mxCell id="ThUR2b_u5rRLdyyr30WP-10" value="Payer creates VBP MeasureReport (including VBP Quality MeasureReport) for a VBP Measure for a performance period" style="rounded=1;whiteSpace=wrap;html=1;fillColor=#dae8fc;strokeColor=#6c8ebf;" parent="_rIR7Xz8R4I5HbbiQDbp-1" vertex="1">
          <mxGeometry x="90" y="230" width="220" height="90" as="geometry" />
        </mxCell>
        <mxCell id="ThUR2b_u5rRLdyyr30WP-11" value="" style="endArrow=classic;html=1;rounded=0;exitX=0.5;exitY=1;exitDx=0;exitDy=0;entryX=0.5;entryY=0;entryDx=0;entryDy=0;" parent="_rIR7Xz8R4I5HbbiQDbp-1" source="ThUR2b_u5rRLdyyr30WP-9" target="ThUR2b_u5rRLdyyr30WP-10" edge="1">
          <mxGeometry width="50" height="50" relative="1" as="geometry">
            <mxPoint x="230" y="140" as="sourcePoint" />
            <mxPoint x="280" y="90" as="targetPoint" />
          </mxGeometry>
        </mxCell>
        <mxCell id="UP6PDHxiDS9cbHdTHOit-2" value="" style="endArrow=classic;html=1;rounded=0;exitX=-0.01;exitY=0.687;exitDx=0;exitDy=0;exitPerimeter=0;entryX=0.996;entryY=0.687;entryDx=0;entryDy=0;entryPerimeter=0;" parent="_rIR7Xz8R4I5HbbiQDbp-1" edge="1">
          <mxGeometry width="50" height="50" relative="1" as="geometry">
            <mxPoint x="597.62" y="360" as="sourcePoint" />
            <mxPoint x="340.0000000000001" y="360" as="targetPoint" />
          </mxGeometry>
        </mxCell>
        <mxCell id="UP6PDHxiDS9cbHdTHOit-3" value="GET VBP MeasureReport" style="edgeLabel;html=1;align=center;verticalAlign=middle;resizable=0;points=[];" parent="UP6PDHxiDS9cbHdTHOit-2" vertex="1" connectable="0">
          <mxGeometry x="0.1435" y="1" relative="1" as="geometry">
            <mxPoint as="offset" />
          </mxGeometry>
        </mxCell>
        <mxCell id="UP6PDHxiDS9cbHdTHOit-5" value="" style="endArrow=classic;html=1;rounded=0;exitX=0;exitY=0.25;exitDx=0;exitDy=0;entryX=1;entryY=0.25;entryDx=0;entryDy=0;" parent="_rIR7Xz8R4I5HbbiQDbp-1" source="ThUR2b_u5rRLdyyr30WP-0" target="_rIR7Xz8R4I5HbbiQDbp-2" edge="1">
          <mxGeometry width="50" height="50" relative="1" as="geometry">
            <mxPoint x="470" y="240" as="sourcePoint" />
            <mxPoint x="520" y="190" as="targetPoint" />
          </mxGeometry>
        </mxCell>
        <mxCell id="UP6PDHxiDS9cbHdTHOit-6" value="GET VBP Measure" style="edgeLabel;html=1;align=center;verticalAlign=middle;resizable=0;points=[];" parent="UP6PDHxiDS9cbHdTHOit-5" vertex="1" connectable="0">
          <mxGeometry x="0.0138" y="-1" relative="1" as="geometry">
            <mxPoint as="offset" />
          </mxGeometry>
        </mxCell>
        <mxCell id="UP6PDHxiDS9cbHdTHOit-7" value="" style="endArrow=classic;html=1;rounded=0;exitX=0.996;exitY=0.284;exitDx=0;exitDy=0;exitPerimeter=0;" parent="_rIR7Xz8R4I5HbbiQDbp-1" source="_rIR7Xz8R4I5HbbiQDbp-2" edge="1">
          <mxGeometry width="50" height="50" relative="1" as="geometry">
            <mxPoint x="470" y="240" as="sourcePoint" />
            <mxPoint x="600" y="160" as="targetPoint" />
          </mxGeometry>
        </mxCell>
        <mxCell id="UP6PDHxiDS9cbHdTHOit-8" value="" style="endArrow=classic;html=1;rounded=0;exitX=0.996;exitY=0.284;exitDx=0;exitDy=0;exitPerimeter=0;" parent="_rIR7Xz8R4I5HbbiQDbp-1" edge="1">
          <mxGeometry width="50" height="50" relative="1" as="geometry">
            <mxPoint x="341.12" y="382.76" as="sourcePoint" />
            <mxPoint x="602.12" y="382.76" as="targetPoint" />
          </mxGeometry>
        </mxCell>
        <mxCell id="UP6PDHxiDS9cbHdTHOit-9" value="&lt;br style=&quot;border-color: var(--border-color); font-size: 11px;&quot;&gt;&lt;span style=&quot;border-color: var(--border-color); font-size: 11px; background-color: rgb(255, 255, 255);&quot;&gt;Provider periodically query the&amp;nbsp;&lt;/span&gt;&lt;span style=&quot;border-color: var(--border-color); font-size: 11px; background-color: rgb(255, 255, 255);&quot;&gt;Payer &lt;br&gt;server for available reports, e.g., monthly&lt;br&gt;or&lt;br&gt;If notification is in place, Payer could notify&lt;br style=&quot;border-color: var(--border-color); background-color: rgb(251, 251, 251);&quot;&gt;&lt;span style=&quot;font-size: 12px; background-color: rgb(251, 251, 251);&quot;&gt;Provider when the reports are ready&lt;/span&gt;&lt;br&gt;&lt;/span&gt;" style="shape=note;whiteSpace=wrap;html=1;backgroundOutline=1;darkOpacity=0.05;" parent="_rIR7Xz8R4I5HbbiQDbp-1" vertex="1">
          <mxGeometry x="350" y="215" width="240" height="100" as="geometry" />
        </mxCell>
        <mxCell id="UP6PDHxiDS9cbHdTHOit-10" value="Provider is able to query Payer server to get a list of VBP Measure(s) for their organization" style="shape=note;whiteSpace=wrap;html=1;backgroundOutline=1;darkOpacity=0.05;" parent="_rIR7Xz8R4I5HbbiQDbp-1" vertex="1">
          <mxGeometry x="350" y="30" width="240" height="100" as="geometry" />
        </mxCell>
        <mxCell id="UP6PDHxiDS9cbHdTHOit-11" value="return&lt;br&gt;Bundle:" style="rounded=0;whiteSpace=wrap;html=1;" parent="_rIR7Xz8R4I5HbbiQDbp-1" vertex="1">
          <mxGeometry x="250" y="740" width="120" height="60" as="geometry" />
        </mxCell>
        <mxCell id="JlVDUbVpZxmEJvphlGEa-0" value="Who creates the stratification data for the MeasureReport?" style="rounded=0;whiteSpace=wrap;html=1;" parent="_rIR7Xz8R4I5HbbiQDbp-1" vertex="1">
          <mxGeometry x="450" y="740" width="150" height="60" as="geometry" />
        </mxCell>
      </root>
    </mxGraphModel>
  </diagram>
  <diagram name="Page-1" id="xF87FQKyJjJ2NxswLsb5">
    <mxGraphModel dx="1184" dy="705" grid="1" gridSize="10" guides="1" tooltips="1" connect="1" arrows="1" fold="1" page="1" pageScale="1" pageWidth="1169" pageHeight="827" math="0" shadow="0">
      <root>
        <mxCell id="0" />
        <mxCell id="1" parent="0" />
        <mxCell id="2ZzecTXQJrvcBBoFa7_2-3" value="&lt;b&gt;&lt;font style=&quot;font-size: 14px;&quot;&gt;Payer&lt;/font&gt;&lt;/b&gt;&lt;br&gt;&lt;br&gt;&lt;br&gt;&lt;br&gt;&lt;br&gt;&lt;br&gt;&lt;br&gt;&lt;br&gt;&lt;br&gt;&lt;br&gt;&lt;br&gt;&lt;br&gt;&lt;br&gt;&lt;br&gt;&lt;br&gt;&lt;br&gt;&lt;br&gt;&lt;br&gt;&lt;br&gt;&lt;br&gt;&lt;br&gt;&lt;br&gt;&lt;br&gt;&lt;br&gt;&lt;br&gt;&lt;br&gt;&lt;br&gt;" style="rounded=0;whiteSpace=wrap;html=1;" parent="1" vertex="1">
          <mxGeometry x="60" y="80" width="230" height="410" as="geometry" />
        </mxCell>
        <mxCell id="2ZzecTXQJrvcBBoFa7_2-4" value="Payer creates VBP Measure&lt;br&gt;(Measure.url assigned)" style="rounded=1;whiteSpace=wrap;html=1;fillColor=#dae8fc;strokeColor=#6c8ebf;" parent="1" vertex="1">
          <mxGeometry x="90" y="120" width="170" height="60" as="geometry" />
        </mxCell>
        <mxCell id="2ZzecTXQJrvcBBoFa7_2-5" value="&lt;b&gt;&lt;font style=&quot;font-size: 14px;&quot;&gt;Provider&lt;/font&gt;&lt;/b&gt;&lt;br&gt;&lt;br&gt;&lt;br&gt;&lt;br&gt;&lt;br&gt;&lt;br&gt;&lt;br&gt;&lt;br&gt;&lt;br&gt;&lt;br&gt;&lt;br&gt;&lt;br&gt;&lt;br&gt;&lt;br&gt;&lt;br&gt;&lt;br&gt;&lt;br&gt;&lt;br&gt;&lt;br&gt;&lt;br&gt;&lt;br&gt;&lt;br&gt;&lt;br&gt;&lt;br&gt;&lt;br&gt;&lt;br&gt;&lt;br&gt;" style="rounded=0;whiteSpace=wrap;html=1;" parent="1" vertex="1">
          <mxGeometry x="570" y="80" width="250" height="410" as="geometry" />
        </mxCell>
        <mxCell id="2ZzecTXQJrvcBBoFa7_2-7" value="Payer creates VBP MeasureReport (including VBP Quality MeasureReport) for a VBP Measure for a performance period" style="rounded=1;whiteSpace=wrap;html=1;fillColor=#dae8fc;strokeColor=#6c8ebf;" parent="1" vertex="1">
          <mxGeometry x="90" y="230" width="170" height="90" as="geometry" />
        </mxCell>
        <mxCell id="2ZzecTXQJrvcBBoFa7_2-8" value="" style="endArrow=classic;html=1;rounded=0;exitX=0.5;exitY=1;exitDx=0;exitDy=0;entryX=0.5;entryY=0;entryDx=0;entryDy=0;" parent="1" source="2ZzecTXQJrvcBBoFa7_2-4" target="2ZzecTXQJrvcBBoFa7_2-7" edge="1">
          <mxGeometry width="50" height="50" relative="1" as="geometry">
            <mxPoint x="230" y="140" as="sourcePoint" />
            <mxPoint x="280" y="90" as="targetPoint" />
          </mxGeometry>
        </mxCell>
        <mxCell id="2ZzecTXQJrvcBBoFa7_2-9" value="" style="endArrow=classic;html=1;rounded=0;entryX=-0.005;entryY=0.438;entryDx=0;entryDy=0;entryPerimeter=0;" parent="1" target="2ZzecTXQJrvcBBoFa7_2-5" edge="1">
          <mxGeometry width="50" height="50" relative="1" as="geometry">
            <mxPoint x="260" y="260" as="sourcePoint" />
            <mxPoint x="510" y="260" as="targetPoint" />
            <Array as="points">
              <mxPoint x="440" y="260" />
            </Array>
          </mxGeometry>
        </mxCell>
        <mxCell id="2ZzecTXQJrvcBBoFa7_2-10" value="Payer sends notification to &lt;br&gt;Provider the reports are ready&lt;br&gt;or&lt;br&gt;Provider could periodically query the &lt;br&gt;Payer server" style="edgeLabel;html=1;align=center;verticalAlign=middle;resizable=0;points=[];" parent="2ZzecTXQJrvcBBoFa7_2-9" vertex="1" connectable="0">
          <mxGeometry x="-0.2335" relative="1" as="geometry">
            <mxPoint x="42" as="offset" />
          </mxGeometry>
        </mxCell>
        <mxCell id="2ZzecTXQJrvcBBoFa7_2-12" value="Provider GET the VBP MeasureReport using searchParameters:&lt;br&gt;&lt;div style=&quot;text-align: left;&quot;&gt;&lt;ul&gt;&lt;li&gt;&lt;span style=&quot;background-color: initial;&quot;&gt;measure&lt;/span&gt;&lt;/li&gt;&lt;li&gt;&lt;span style=&quot;background-color: initial;&quot;&gt;period&amp;nbsp;&lt;/span&gt;&lt;/li&gt;&lt;/ul&gt;&lt;/div&gt;" style="rounded=1;whiteSpace=wrap;html=1;fillColor=#d5e8d4;strokeColor=#82b366;" parent="1" vertex="1">
          <mxGeometry x="580" y="320" width="230" height="130" as="geometry" />
        </mxCell>
        <mxCell id="2ZzecTXQJrvcBBoFa7_2-13" value="" style="endArrow=classic;html=1;rounded=0;exitX=-0.003;exitY=0.567;exitDx=0;exitDy=0;exitPerimeter=0;entryX=1.002;entryY=0.177;entryDx=0;entryDy=0;entryPerimeter=0;" parent="1" target="2ZzecTXQJrvcBBoFa7_2-3" edge="1">
          <mxGeometry width="50" height="50" relative="1" as="geometry">
            <mxPoint x="570" y="150.82000000000005" as="sourcePoint" />
            <mxPoint x="290" y="149" as="targetPoint" />
          </mxGeometry>
        </mxCell>
        <mxCell id="YnmkY-NRzfnBRuAlrsmO-1" value="Provider is able to query Payer server&lt;br&gt;for VBP Measure(s)" style="edgeLabel;html=1;align=center;verticalAlign=middle;resizable=0;points=[];" parent="2ZzecTXQJrvcBBoFa7_2-13" vertex="1" connectable="0">
          <mxGeometry x="0.0875" relative="1" as="geometry">
            <mxPoint as="offset" />
          </mxGeometry>
        </mxCell>
        <mxCell id="2ZzecTXQJrvcBBoFa7_2-14" value="Provider GET the VBP Measure using searchParameters:&lt;br&gt;&lt;ul&gt;&lt;li style=&quot;text-align: left;&quot;&gt;name (contract name)&lt;/li&gt;&lt;li style=&quot;text-align: left;&quot;&gt;url (canonical identifier)&lt;/li&gt;&lt;li style=&quot;text-align: left;&quot;&gt;identifier (business identifier for the contract)&lt;/li&gt;&lt;li style=&quot;text-align: left;&quot;&gt;effective (effectivePeriod for the contract/contract term)&lt;/li&gt;&lt;/ul&gt;" style="rounded=1;whiteSpace=wrap;html=1;fillColor=#d5e8d4;strokeColor=#82b366;" parent="1" vertex="1">
          <mxGeometry x="580" y="110" width="230" height="160" as="geometry" />
        </mxCell>
        <mxCell id="2ZzecTXQJrvcBBoFa7_2-15" value="Does Measure.identifier need to be required?" style="rounded=0;whiteSpace=wrap;html=1;" parent="1" vertex="1">
          <mxGeometry x="900" y="240" width="150" height="60" as="geometry" />
        </mxCell>
        <mxCell id="2ZzecTXQJrvcBBoFa7_2-17" value="" style="endArrow=classic;html=1;rounded=0;exitX=1.002;exitY=0.221;exitDx=0;exitDy=0;exitPerimeter=0;" parent="1" source="2ZzecTXQJrvcBBoFa7_2-3" edge="1">
          <mxGeometry width="50" height="50" relative="1" as="geometry">
            <mxPoint x="390" y="180" as="sourcePoint" />
            <mxPoint x="570" y="170" as="targetPoint" />
          </mxGeometry>
        </mxCell>
        <mxCell id="2ZzecTXQJrvcBBoFa7_2-18" value="" style="endArrow=classic;html=1;rounded=0;exitX=1;exitY=0.75;exitDx=0;exitDy=0;entryX=0;entryY=0.75;entryDx=0;entryDy=0;" parent="1" source="2ZzecTXQJrvcBBoFa7_2-3" target="2ZzecTXQJrvcBBoFa7_2-5" edge="1">
          <mxGeometry width="50" height="50" relative="1" as="geometry">
            <mxPoint x="390" y="170" as="sourcePoint" />
            <mxPoint x="440" y="120" as="targetPoint" />
          </mxGeometry>
        </mxCell>
        <mxCell id="1pWlB-68C85tWUwQhCtB-1" value="" style="endArrow=classic;html=1;rounded=0;exitX=0.5;exitY=1;exitDx=0;exitDy=0;" parent="1" source="2ZzecTXQJrvcBBoFa7_2-14" target="2ZzecTXQJrvcBBoFa7_2-12" edge="1">
          <mxGeometry width="50" height="50" relative="1" as="geometry">
            <mxPoint x="490" y="350" as="sourcePoint" />
            <mxPoint x="540" y="300" as="targetPoint" />
          </mxGeometry>
        </mxCell>
      </root>
    </mxGraphModel>
  </diagram>
  <diagram name="archive" id="L5-xji7w4p_DwdLRyEbH">
    <mxGraphModel dx="1232" dy="710" grid="1" gridSize="10" guides="1" tooltips="1" connect="1" arrows="1" fold="1" page="1" pageScale="1" pageWidth="1169" pageHeight="827" math="0" shadow="0">
      <root>
        <mxCell id="SuF5znR_8tENVu7MnuCK-0" />
        <mxCell id="SuF5znR_8tENVu7MnuCK-1" parent="SuF5znR_8tENVu7MnuCK-0" />
        <mxCell id="SuF5znR_8tENVu7MnuCK-2" value="Payer creates VBP Measure (contract already in place)&lt;br&gt;&lt;br&gt;Measures already in place" style="rounded=0;whiteSpace=wrap;html=1;" vertex="1" parent="SuF5znR_8tENVu7MnuCK-1">
          <mxGeometry x="145" y="40" width="210" height="80" as="geometry" />
        </mxCell>
        <mxCell id="SuF5znR_8tENVu7MnuCK-3" value="Provider be able to search Measure by (e.g., contract name, contract id, contract term/period .... need to define these parameters)" style="rounded=0;whiteSpace=wrap;html=1;" vertex="1" parent="SuF5znR_8tENVu7MnuCK-1">
          <mxGeometry x="120" y="230" width="260" height="60" as="geometry" />
        </mxCell>
        <mxCell id="SuF5znR_8tENVu7MnuCK-4" value="" style="endArrow=classic;html=1;rounded=0;exitX=0.5;exitY=0;exitDx=0;exitDy=0;entryX=0.5;entryY=1;entryDx=0;entryDy=0;" edge="1" parent="SuF5znR_8tENVu7MnuCK-1" source="SuF5znR_8tENVu7MnuCK-3" target="SuF5znR_8tENVu7MnuCK-2">
          <mxGeometry width="50" height="50" relative="1" as="geometry">
            <mxPoint x="410" y="380" as="sourcePoint" />
            <mxPoint x="460" y="330" as="targetPoint" />
          </mxGeometry>
        </mxCell>
        <mxCell id="SuF5znR_8tENVu7MnuCK-5" value="Provider GET" style="edgeLabel;html=1;align=center;verticalAlign=middle;resizable=0;points=[];" vertex="1" connectable="0" parent="SuF5znR_8tENVu7MnuCK-4">
          <mxGeometry x="-0.1494" y="-6" relative="1" as="geometry">
            <mxPoint as="offset" />
          </mxGeometry>
        </mxCell>
        <mxCell id="SuF5znR_8tENVu7MnuCK-6" value="Payer could send notifications to Provider to notify the reports are ready&amp;nbsp;" style="text;html=1;strokeColor=none;fillColor=none;align=center;verticalAlign=middle;whiteSpace=wrap;rounded=0;" vertex="1" parent="SuF5znR_8tENVu7MnuCK-1">
          <mxGeometry x="30" y="160" width="140" height="30" as="geometry" />
        </mxCell>
        <mxCell id="SuF5znR_8tENVu7MnuCK-7" value="GET MeasureReports based on reporting period for a Measure (contract)&lt;br&gt;MeasureReport.period (year, date)" style="rounded=0;whiteSpace=wrap;html=1;" vertex="1" parent="SuF5znR_8tENVu7MnuCK-1">
          <mxGeometry x="120" y="340" width="250" height="60" as="geometry" />
        </mxCell>
        <mxCell id="SuF5znR_8tENVu7MnuCK-8" value="Get the 2023 report, if it&#39;s done, will send the report. If it&#39;s&amp;nbsp;" style="text;html=1;strokeColor=none;fillColor=none;align=center;verticalAlign=middle;whiteSpace=wrap;rounded=0;" vertex="1" parent="SuF5znR_8tENVu7MnuCK-1">
          <mxGeometry x="525" y="360" width="235" height="30" as="geometry" />
        </mxCell>
        <mxCell id="SuF5znR_8tENVu7MnuCK-9" value="&lt;b&gt;&lt;font style=&quot;font-size: 14px;&quot;&gt;Payer&lt;/font&gt;&lt;/b&gt;&lt;br&gt;&lt;br&gt;&lt;br&gt;&lt;br&gt;&lt;br&gt;&lt;br&gt;&lt;br&gt;&lt;br&gt;&lt;br&gt;&lt;br&gt;&lt;br&gt;&lt;br&gt;&lt;br&gt;&lt;br&gt;&lt;br&gt;&lt;br&gt;&lt;br&gt;&lt;br&gt;&lt;br&gt;&lt;br&gt;&lt;br&gt;&lt;br&gt;&lt;br&gt;&lt;br&gt;&lt;br&gt;&lt;br&gt;&lt;br&gt;" style="rounded=0;whiteSpace=wrap;html=1;" vertex="1" parent="SuF5znR_8tENVu7MnuCK-1">
          <mxGeometry x="160" y="580" width="230" height="410" as="geometry" />
        </mxCell>
        <mxCell id="SuF5znR_8tENVu7MnuCK-10" value="Payer creates VBP Measure&lt;br&gt;(Measure.url assigned)" style="rounded=1;whiteSpace=wrap;html=1;fillColor=#dae8fc;strokeColor=#6c8ebf;" vertex="1" parent="SuF5znR_8tENVu7MnuCK-1">
          <mxGeometry x="190" y="620" width="170" height="60" as="geometry" />
        </mxCell>
        <mxCell id="SuF5znR_8tENVu7MnuCK-11" value="&lt;b&gt;&lt;font style=&quot;font-size: 14px;&quot;&gt;Provider&lt;/font&gt;&lt;/b&gt;&lt;br&gt;&lt;br&gt;&lt;br&gt;&lt;br&gt;&lt;br&gt;&lt;br&gt;&lt;br&gt;&lt;br&gt;&lt;br&gt;&lt;br&gt;&lt;br&gt;&lt;br&gt;&lt;br&gt;&lt;br&gt;&lt;br&gt;&lt;br&gt;&lt;br&gt;&lt;br&gt;&lt;br&gt;&lt;br&gt;&lt;br&gt;&lt;br&gt;&lt;br&gt;&lt;br&gt;&lt;br&gt;&lt;br&gt;&lt;br&gt;" style="rounded=0;whiteSpace=wrap;html=1;" vertex="1" parent="SuF5znR_8tENVu7MnuCK-1">
          <mxGeometry x="670" y="580" width="250" height="410" as="geometry" />
        </mxCell>
        <mxCell id="SuF5znR_8tENVu7MnuCK-12" value="Payer creates VBP MeasureReport (including VBP Quality MeasureReport) for a VBP Measure for a performance period" style="rounded=1;whiteSpace=wrap;html=1;fillColor=#dae8fc;strokeColor=#6c8ebf;" vertex="1" parent="SuF5znR_8tENVu7MnuCK-1">
          <mxGeometry x="190" y="730" width="170" height="90" as="geometry" />
        </mxCell>
        <mxCell id="SuF5znR_8tENVu7MnuCK-13" value="" style="endArrow=classic;html=1;rounded=0;exitX=0.5;exitY=1;exitDx=0;exitDy=0;entryX=0.5;entryY=0;entryDx=0;entryDy=0;" edge="1" parent="SuF5znR_8tENVu7MnuCK-1" source="SuF5znR_8tENVu7MnuCK-10" target="SuF5znR_8tENVu7MnuCK-12">
          <mxGeometry width="50" height="50" relative="1" as="geometry">
            <mxPoint x="330" y="640" as="sourcePoint" />
            <mxPoint x="380" y="590" as="targetPoint" />
          </mxGeometry>
        </mxCell>
        <mxCell id="SuF5znR_8tENVu7MnuCK-14" value="" style="endArrow=classic;html=1;rounded=0;entryX=-0.005;entryY=0.438;entryDx=0;entryDy=0;entryPerimeter=0;" edge="1" parent="SuF5znR_8tENVu7MnuCK-1" target="SuF5znR_8tENVu7MnuCK-11">
          <mxGeometry width="50" height="50" relative="1" as="geometry">
            <mxPoint x="360" y="760" as="sourcePoint" />
            <mxPoint x="610" y="760" as="targetPoint" />
            <Array as="points">
              <mxPoint x="540" y="760" />
            </Array>
          </mxGeometry>
        </mxCell>
        <mxCell id="SuF5znR_8tENVu7MnuCK-15" value="Payer sends notification to &lt;br&gt;Provider the reports are ready&lt;br&gt;or&lt;br&gt;Provider could periodically query the &lt;br&gt;Payer server" style="edgeLabel;html=1;align=center;verticalAlign=middle;resizable=0;points=[];" vertex="1" connectable="0" parent="SuF5znR_8tENVu7MnuCK-14">
          <mxGeometry x="-0.2335" relative="1" as="geometry">
            <mxPoint x="42" as="offset" />
          </mxGeometry>
        </mxCell>
        <mxCell id="SuF5znR_8tENVu7MnuCK-16" value="Provider GET the VBP MeasureReport using searchParameters:&lt;br&gt;&lt;div style=&quot;text-align: left;&quot;&gt;&lt;ul&gt;&lt;li&gt;&lt;span style=&quot;background-color: initial;&quot;&gt;measure&lt;/span&gt;&lt;/li&gt;&lt;li&gt;&lt;span style=&quot;background-color: initial;&quot;&gt;period&amp;nbsp;&lt;/span&gt;&lt;/li&gt;&lt;/ul&gt;&lt;/div&gt;" style="rounded=1;whiteSpace=wrap;html=1;fillColor=#d5e8d4;strokeColor=#82b366;" vertex="1" parent="SuF5znR_8tENVu7MnuCK-1">
          <mxGeometry x="680" y="820" width="230" height="130" as="geometry" />
        </mxCell>
        <mxCell id="SuF5znR_8tENVu7MnuCK-17" value="" style="endArrow=classic;html=1;rounded=0;exitX=-0.003;exitY=0.567;exitDx=0;exitDy=0;exitPerimeter=0;entryX=1.002;entryY=0.177;entryDx=0;entryDy=0;entryPerimeter=0;" edge="1" parent="SuF5znR_8tENVu7MnuCK-1" target="SuF5znR_8tENVu7MnuCK-9">
          <mxGeometry width="50" height="50" relative="1" as="geometry">
            <mxPoint x="670" y="650.82" as="sourcePoint" />
            <mxPoint x="390" y="649" as="targetPoint" />
          </mxGeometry>
        </mxCell>
        <mxCell id="SuF5znR_8tENVu7MnuCK-18" value="Provider is able to search &lt;br&gt;VBP Measures" style="edgeLabel;html=1;align=center;verticalAlign=middle;resizable=0;points=[];" vertex="1" connectable="0" parent="SuF5znR_8tENVu7MnuCK-17">
          <mxGeometry x="0.04" y="1" relative="1" as="geometry">
            <mxPoint as="offset" />
          </mxGeometry>
        </mxCell>
        <mxCell id="SuF5znR_8tENVu7MnuCK-19" value="Provider GET the VBP Measure using searchParameters:&lt;br&gt;&lt;ul&gt;&lt;li style=&quot;text-align: left;&quot;&gt;name (contract name)&lt;/li&gt;&lt;li style=&quot;text-align: left;&quot;&gt;url (canonical identifier)&lt;/li&gt;&lt;li style=&quot;text-align: left;&quot;&gt;identifier (business identifier for the contract)&lt;/li&gt;&lt;li style=&quot;text-align: left;&quot;&gt;effective (effectivePeriod for the contract/contract term)&lt;/li&gt;&lt;/ul&gt;" style="rounded=1;whiteSpace=wrap;html=1;fillColor=#d5e8d4;strokeColor=#82b366;" vertex="1" parent="SuF5znR_8tENVu7MnuCK-1">
          <mxGeometry x="680" y="610" width="230" height="160" as="geometry" />
        </mxCell>
        <mxCell id="SuF5znR_8tENVu7MnuCK-20" value="Does Measure.identifier need to be required?" style="rounded=0;whiteSpace=wrap;html=1;" vertex="1" parent="SuF5znR_8tENVu7MnuCK-1">
          <mxGeometry x="1000" y="740" width="150" height="60" as="geometry" />
        </mxCell>
        <mxCell id="SuF5znR_8tENVu7MnuCK-21" value="" style="endArrow=classic;html=1;rounded=0;exitX=1.002;exitY=0.221;exitDx=0;exitDy=0;exitPerimeter=0;" edge="1" parent="SuF5znR_8tENVu7MnuCK-1" source="SuF5znR_8tENVu7MnuCK-9">
          <mxGeometry width="50" height="50" relative="1" as="geometry">
            <mxPoint x="490" y="680" as="sourcePoint" />
            <mxPoint x="670" y="670" as="targetPoint" />
          </mxGeometry>
        </mxCell>
        <mxCell id="SuF5znR_8tENVu7MnuCK-22" value="" style="endArrow=classic;html=1;rounded=0;exitX=1;exitY=0.75;exitDx=0;exitDy=0;entryX=0;entryY=0.75;entryDx=0;entryDy=0;" edge="1" parent="SuF5znR_8tENVu7MnuCK-1" source="SuF5znR_8tENVu7MnuCK-9" target="SuF5znR_8tENVu7MnuCK-11">
          <mxGeometry width="50" height="50" relative="1" as="geometry">
            <mxPoint x="490" y="670" as="sourcePoint" />
            <mxPoint x="540" y="620" as="targetPoint" />
          </mxGeometry>
        </mxCell>
      </root>
    </mxGraphModel>
  </diagram>
  <diagram id="-1nSuf57NmRHhuTU020B" name="Page-4">
    <mxGraphModel dx="1232" dy="710" grid="1" gridSize="10" guides="1" tooltips="1" connect="1" arrows="1" fold="1" page="1" pageScale="1" pageWidth="1169" pageHeight="827" math="0" shadow="0">
      <root>
        <mxCell id="0" />
        <mxCell id="1" parent="0" />
        <mxCell id="6ekV23qD12q5thxZaiMD-1" value="MeasureReport (VTE1)&lt;br&gt;&lt;br&gt;starScore: 5&lt;br&gt;&lt;br&gt;group 1&lt;br&gt;&lt;span style=&quot;&quot;&gt;&lt;span style=&quot;white-space: pre;&quot;&gt;&amp;nbsp;&amp;nbsp;&amp;nbsp;&amp;nbsp;&lt;/span&gt;&lt;/span&gt;population: numerator&lt;br&gt;&amp;nbsp; &amp;nbsp; &amp;nbsp; &amp;nbsp; population: denominator&lt;br&gt;&amp;nbsp; &amp;nbsp; &amp;nbsp; &amp;nbsp; starScore&lt;br&gt;&amp;nbsp; &amp;nbsp; &amp;nbsp; &amp;nbsp; stratifier&amp;nbsp;&lt;br&gt;group 2&lt;br&gt;&amp;nbsp; &amp;nbsp;&lt;span style=&quot;&quot;&gt;&lt;span style=&quot;white-space: pre;&quot;&gt;&amp;nbsp;&amp;nbsp;&amp;nbsp;&amp;nbsp;&lt;/span&gt;&lt;/span&gt;population: numerator 2&lt;br&gt;&lt;span style=&quot;&quot;&gt;&lt;span style=&quot;white-space: pre;&quot;&gt;&amp;nbsp;&amp;nbsp;&amp;nbsp;&amp;nbsp;&lt;/span&gt;&lt;/span&gt;population: denominator 2&lt;br&gt;&lt;span style=&quot;&quot;&gt;&lt;span style=&quot;white-space: pre;&quot;&gt;&amp;nbsp;&amp;nbsp;&amp;nbsp;&amp;nbsp;&lt;/span&gt;&lt;/span&gt;starScore&lt;br&gt;&lt;br&gt;&lt;br&gt;&lt;div&gt;Tax ID&lt;span style=&quot;white-space: pre;&quot;&gt;&amp;nbsp;&amp;nbsp;&amp;nbsp;&amp;nbsp;&lt;/span&gt;Measure&lt;span style=&quot;&quot;&gt;&lt;span style=&quot;white-space: pre;&quot;&gt;&amp;nbsp;&amp;nbsp;&amp;nbsp;&amp;nbsp;&lt;/span&gt;&lt;/span&gt;Num&lt;span style=&quot;&quot;&gt;&lt;span style=&quot;white-space: pre;&quot;&gt;&amp;nbsp;&amp;nbsp;&amp;nbsp;&amp;nbsp;&lt;/span&gt;&lt;/span&gt;Denom&lt;span style=&quot;&quot;&gt;&lt;span style=&quot;white-space: pre;&quot;&gt;&amp;nbsp;&amp;nbsp;&amp;nbsp;&amp;nbsp;&lt;/span&gt;&lt;/span&gt;%&lt;span style=&quot;&quot;&gt;&lt;span style=&quot;white-space: pre;&quot;&gt;&amp;nbsp;&amp;nbsp;&amp;nbsp;&amp;nbsp;&lt;/span&gt;&lt;/span&gt;Star&lt;/div&gt;&lt;div&gt;123&lt;span style=&quot;&quot;&gt;&lt;span style=&quot;white-space: pre;&quot;&gt;&amp;nbsp;&amp;nbsp;&amp;nbsp;&amp;nbsp;&lt;/span&gt;&lt;/span&gt;Colorectal&lt;span style=&quot;&quot;&gt;&lt;span style=&quot;white-space: pre;&quot;&gt;&amp;nbsp;&amp;nbsp;&amp;nbsp;&amp;nbsp;&lt;/span&gt;&lt;/span&gt;10&lt;span style=&quot;&quot;&gt;&lt;span style=&quot;white-space: pre;&quot;&gt;&amp;nbsp;&amp;nbsp;&amp;nbsp;&amp;nbsp;&lt;/span&gt;&lt;/span&gt;20&lt;span style=&quot;&quot;&gt;&lt;span style=&quot;white-space: pre;&quot;&gt;&amp;nbsp;&amp;nbsp;&amp;nbsp;&amp;nbsp;&lt;/span&gt;&lt;/span&gt;0.5&lt;span style=&quot;&quot;&gt;&lt;span style=&quot;white-space: pre;&quot;&gt;&amp;nbsp;&amp;nbsp;&amp;nbsp;&amp;nbsp;              &lt;/span&gt;&lt;/span&gt;3&lt;/div&gt;&lt;div&gt;234&lt;span style=&quot;&quot;&gt;&lt;span style=&quot;white-space: pre;&quot;&gt;&amp;nbsp;&amp;nbsp;&amp;nbsp;&amp;nbsp;&lt;/span&gt;&lt;/span&gt;Colorectal&lt;span style=&quot;&quot;&gt;&lt;span style=&quot;white-space: pre;&quot;&gt;&amp;nbsp;&amp;nbsp;&amp;nbsp;&amp;nbsp;&lt;/span&gt;&lt;/span&gt;5&lt;span style=&quot;&quot;&gt;&lt;span style=&quot;white-space: pre;&quot;&gt;&amp;nbsp;&amp;nbsp;&amp;nbsp;&amp;nbsp;&lt;/span&gt;&lt;/span&gt;30&lt;span style=&quot;&quot;&gt;&lt;span style=&quot;white-space: pre;&quot;&gt;&amp;nbsp;&amp;nbsp;&amp;nbsp;&amp;nbsp;&lt;/span&gt;&lt;/span&gt;0.166666667&lt;span style=&quot;&quot;&gt;&lt;span style=&quot;white-space: pre;&quot;&gt;&amp;nbsp;&amp;nbsp;&amp;nbsp;&amp;nbsp;&lt;/span&gt;&lt;/span&gt;2&lt;/div&gt;&lt;div&gt;345&lt;span style=&quot;&quot;&gt;&lt;span style=&quot;white-space: pre;&quot;&gt;&amp;nbsp;&amp;nbsp;&amp;nbsp;&amp;nbsp;&lt;/span&gt;&lt;/span&gt;Colorectal&lt;span style=&quot;&quot;&gt;&lt;span style=&quot;white-space: pre;&quot;&gt;&amp;nbsp;&amp;nbsp;&amp;nbsp;&amp;nbsp;&lt;/span&gt;&lt;/span&gt;8&lt;span style=&quot;&quot;&gt;&lt;span style=&quot;white-space: pre;&quot;&gt;&amp;nbsp;&amp;nbsp;&amp;nbsp;&amp;nbsp;&lt;/span&gt;&lt;/span&gt;24&lt;span style=&quot;&quot;&gt;&lt;span style=&quot;white-space: pre;&quot;&gt;&amp;nbsp;&amp;nbsp;&amp;nbsp;&amp;nbsp;&lt;/span&gt;&lt;/span&gt;0.333333333&lt;span style=&quot;&quot;&gt;&lt;span style=&quot;white-space: pre;&quot;&gt;&amp;nbsp;&amp;nbsp;&amp;nbsp;&amp;nbsp;&lt;/span&gt;&lt;/span&gt;2&lt;/div&gt;" style="rounded=0;whiteSpace=wrap;html=1;align=left;" vertex="1" parent="1">
          <mxGeometry x="140" y="160" width="430" height="370" as="geometry" />
        </mxCell>
      </root>
    </mxGraphModel>
  </diagram>
</mxfile>
